<svg width="120.000000" height="33.469971" viewBox="0 0 120 33.47" fill="none" xmlns="http://www.w3.org/2000/svg" xmlns:xlink="http://www.w3.org/1999/xlink">
	<desc>
			Created with Pixso.
	</desc>
	<defs/>
	<path id="Vector" d="M21.72 24.72C22.09 26.12 22.69 26.67 23.75 26.67C24.85 26.67 25.43 26.01 25.43 24.72L25.43 0.75L32.32 0.75L32.32 24.72C32.32 28.1 31.88 29.56 30.17 31.27C28.94 32.51 26.66 33.47 23.78 33.47C21.46 33.47 19.24 32.7 17.82 31.28C16.58 30.03 15.89 28.75 14.83 24.72L10.6 8.74C10.22 7.34 9.63 6.79 8.57 6.79C7.47 6.79 6.89 7.45 6.89 8.74L6.89 32.71L0 32.71L0 8.74C0 5.37 0.44 3.9 2.14 2.19C3.38 0.95 5.66 0 8.53 0C10.86 0 13.08 0.77 14.5 2.18C15.74 3.43 16.42 4.71 17.49 8.74L21.72 24.72ZM112.87 32.71L104.92 7.81C104.85 7.57 104.75 7.35 104.62 7.15C104.5 7.01 104.36 6.91 104.2 6.83C104.04 6.76 103.86 6.73 103.69 6.74C103.51 6.73 103.34 6.76 103.17 6.84C103.01 6.91 102.87 7.01 102.76 7.15C102.62 7.35 102.52 7.57 102.46 7.81L94.51 32.71L87.38 32.71L96.08 5.51C96.53 4.1 97.18 2.89 98 2.09C99.41 0.71 101.07 0 103.69 0C106.31 0 107.97 0.71 109.38 2.1C110.2 2.89 110.85 4.1 111.3 5.51L120 32.71L112.87 32.71ZM77.65 32.71C82.17 32.71 84.37 31.75 86.11 30.02C88.04 28.11 88.96 26.01 88.96 22.88C88.96 20.12 87.95 17.57 86.41 16.04C84.39 14.04 81.89 13.4 77.81 13.4L72.1 13.4C69.92 13.4 69.05 13.13 68.36 12.46C67.89 12 67.67 11.31 67.67 10.5C67.67 9.65 67.87 8.83 68.44 8.26C68.96 7.76 69.66 7.52 71 7.52L87.51 7.52L87.51 0.75L72.26 0.75C67.75 0.75 65.55 1.71 63.81 3.44C61.88 5.36 60.96 7.45 60.96 10.58C60.96 13.34 61.97 15.89 63.51 17.42C65.53 19.42 68.03 20.06 72.11 20.06L77.81 20.06C80 20.06 80.86 20.33 81.55 21C82.03 21.47 82.25 22.15 82.25 22.97C82.25 23.81 82.05 24.64 81.47 25.21C80.96 25.71 80.26 25.94 78.92 25.94L61.89 25.94L55.36 5.51C54.91 4.1 54.26 2.89 53.44 2.09C52.03 0.71 50.37 0 47.75 0C45.13 0 43.46 0.71 42.06 2.1C41.23 2.89 40.59 4.1 40.13 5.51L31.44 32.71L38.56 32.71L46.52 7.81C46.58 7.57 46.68 7.35 46.82 7.15C46.93 7.01 47.07 6.91 47.23 6.84C47.39 6.76 47.57 6.73 47.75 6.74C48.16 6.74 48.46 6.88 48.68 7.15C48.81 7.35 48.91 7.57 48.98 7.81L56.93 32.71L77.65 32.71Z" fill="#FF342B" fill-opacity="1.000000" fill-rule="nonzero"/>
</svg>
